<svg xmlns="http://www.w3.org/2000/svg" width="24" height="26" viewBox="0 0 24 26"><g><g><path fill="#8ec2f2" d="M23.705 1.213c.131.142.22.32.258.514.037.194.02.394-.048.578l-8 22.88c-.068.198-.193.369-.357.492a.975.975 0 0 1-.563.194.974.974 0 0 1-.544-.187 1.034 1.034 0 0 1-.356-.468l-3.84-9.984-9.6-3.994a1.008 1.008 0 0 1-.468-.381 1.07 1.07 0 0 1 0-1.182c.115-.173.279-.306.468-.381l22-8.32a.964.964 0 0 1 .559-.04.99.99 0 0 1 .491.279zm-2.38 2.475l-17.53 6.583 6.96 2.943 4.83-5.023 1.41 1.467-4.79 4.981 2.79 7.28z"/></g></g></svg>