<svg xmlns="http://www.w3.org/2000/svg" width="24" height="24" viewBox="0 0 24 24"><g><g><path fill="#e51f5a" d="M18.152 12.002a6.144 6.144 0 0 1-6.153 6.153 6.144 6.144 0 0 1-6.153-6.153 6.144 6.144 0 0 1 6.153-6.153 6.144 6.144 0 0 1 6.153 6.153zm-2.154 0a4.007 4.007 0 0 0-4-4 4.007 4.007 0 0 0-3.998 4A4.007 4.007 0 0 0 11.999 16a4.007 4.007 0 0 0 3.999-4zm2.956-7.73a1.436 1.436 0 0 1 .887 1.328c0 .798-.642 1.437-1.437 1.437A1.435 1.435 0 0 1 16.967 5.6a1.435 1.435 0 0 1 1.987-1.328zm4.96 12.68c-.092 1.92-.527 3.62-1.934 5.028-1.404 1.404-3.108 1.842-5.028 1.935-1.653.093-3.294.078-4.95.078-1.653 0-3.294.015-4.95-.078-1.92-.093-3.621-.528-5.028-1.935C.62 20.576.182 18.872.089 16.952c-.093-1.653-.078-3.297-.078-4.95s-.015-3.294.078-4.95c.093-1.92.528-3.621 1.935-5.028C3.428.62 5.132.182 7.052.089 8.705-.004 10.346.01 12.002.01c1.653 0 3.294-.015 4.95.078 1.92.093 3.62.528 5.028 1.935 1.404 1.404 1.842 3.108 1.935 5.028.093 1.653.078 3.294.078 4.95 0 1.656.018 3.297-.078 4.95zm-2.075-4.95c0-1.75.14-5.5-.483-7.077a3.838 3.838 0 0 0-.906-1.374 3.812 3.812 0 0 0-1.374-.906c-1.578-.624-5.328-.483-7.077-.483-1.75 0-5.5-.141-7.077.483a3.878 3.878 0 0 0-1.374.906c-.423.42-.687.828-.906 1.374-.624 1.578-.483 5.328-.483 7.077 0 1.749-.141 5.496.483 7.077.219.546.483.95.906 1.374.42.423.828.687 1.374.906 1.578.624 5.328.483 7.077.483 1.749 0 5.496.14 7.074-.486a3.838 3.838 0 0 0 1.374-.906c.423-.42.687-.828.906-1.374.627-1.578.486-5.325.486-7.074z"/></g></g></svg>