<svg xmlns="http://www.w3.org/2000/svg" width="24" height="31" viewBox="0 0 24 31"><g><g><g/><g><path fill="#8ec2f2" d="M6 12.25c0-3.309 2.691-6 6-6s6 2.691 6 6-2.691 6-6 6-6-2.691-6-6zm3 0c0 1.654 1.345 3 3 3 1.654 0 3-1.346 3-3 0-1.655-1.346-3-3-3-1.655 0-3 1.345-3 3z"/></g><g><path fill="#8ec2f2" d="M0 12.242C0 5.633 5.384.25 12 .25s12 5.383 12 12c.043 9.66-10.674 17.398-11.13 17.72a1.497 1.497 0 0 1-1.74 0C10.674 29.649-.043 21.91 0 12.243zm3 .008c-.031 6.661 6.584 12.64 9 14.602 2.418-1.96 9.031-7.938 9-14.595 0-4.97-4.037-9.007-9-9.007s-9 4.036-9 9z"/></g></g></g></svg>