<svg xmlns="http://www.w3.org/2000/svg" width="24" height="18" viewBox="0 0 24 18"><g><g><path fill="#e42f08" d="M23.975 9.003a34.163 34.163 0 0 1-.505 6.069 3.191 3.191 0 0 1-.775 1.409c-.371.39-.833.67-1.34.814-1.867.532-9.367.532-9.367.532s-7.5 0-9.367-.532a2.966 2.966 0 0 1-1.34-.814 3.192 3.192 0 0 1-.775-1.41A34.16 34.16 0 0 1 0 9.004a34.16 34.16 0 0 1 .505-6.068 3.192 3.192 0 0 1 .775-1.41c.37-.39.833-.67 1.34-.814C4.487.18 11.988.18 11.988.18s7.5 0 9.367.531c.507.144.969.425 1.34.815.371.39.639.876.775 1.409.348 2.002.518 4.033.505 6.068zm-8.16 0L9.59 5.222v7.563z"/></g></g></svg>