<svg xmlns="http://www.w3.org/2000/svg" width="23" height="24" viewBox="0 0 23 24"><g><g><path fill="#8ec2f2" d="M22.644 17.783a1.197 1.197 0 0 1 0 1.697l-3.254 3.254a2.371 2.371 0 0 1-1.686.703h-.034c-1.71-.029-7.645-.48-12.322-5.157C.67 13.602.218 7.667.19 5.958c-.01-.64.247-1.266.703-1.722L4.148.982a1.199 1.199 0 0 1 1.697 0l4.8 4.8a1.198 1.198 0 0 1 0 1.697L8.732 9.39c.264.887.864 2.542 1.913 3.59 1.048 1.05 2.703 1.65 3.59 1.913l1.913-1.912a1.2 1.2 0 0 1 1.696 0zm-2.545.847l-3.103-3.103-1.553 1.551a1.19 1.19 0 0 1-1.094.326c-.138-.03-3.41-.734-5.402-2.726S6.25 9.414 6.22 9.276a1.2 1.2 0 0 1 .327-1.094L8.099 6.63 4.996 3.527 2.59 5.933c.024 1.468.415 6.61 4.455 10.649 4.026 4.027 9.15 4.429 10.647 4.454z"/></g></g></svg>